{
    "asset" : {
        "generator" : "Khronos glTF Blender I/O v1.4.40",
        "version" : "2.0"
    },
    "scene" : 0,
    "scenes" : [
        {
            "name" : "Scene",
            "nodes" : [
                0
            ]
        }
    ],
    "nodes" : [
        {
            "mesh" : 0,
            "name" : "Text.001",
            "rotation" : [
                0.7071068286895752,
                0,
                0,
                0.7071068286895752
            ],
            "scale" : [
                0.46243494749069214,
                0.46243488788604736,
                0.46243488788604736
            ],
            "translation" : [
                -0.0332646369934082,
                -0.03920555114746094,
                0.0002377821074333042
            ]
        }
    ],
    "materials" : [
        {
            "doubleSided" : true,
            "emissiveFactor" : [
                1,
                1,
                1
            ],
            "name" : "Material.002",
            "pbrMetallicRoughness" : {
                "baseColorFactor" : [
                    0.1946461796760559,
                    1,
                    0.9152163863182068,
                    1
                ],
                "metallicFactor" : 0,
                "roughnessFactor" : 0.4000000059604645
            }
        }
    ],
    "meshes" : [
        {
            "name" : "Text",
            "primitives" : [
                {
                    "attributes" : {
                        "POSITION" : 0,
                        "NORMAL" : 1,
                        "TEXCOORD_0" : 2
                    },
                    "indices" : 3,
                    "material" : 0
                }
            ]
        }
    ],
    "accessors" : [
        {
            "bufferView" : 0,
            "componentType" : 5126,
            "count" : 20953,
            "max" : [
                3.877544641494751,
                -10.923009872436523,
                -7.99636173248291
            ],
            "min" : [
                -3.0499300956726074,
                -11.050003051757812,
                -9.195741653442383
            ],
            "type" : "VEC3"
        },
        {
            "bufferView" : 1,
            "componentType" : 5126,
            "count" : 20953,
            "type" : "VEC3"
        },
        {
            "bufferView" : 2,
            "componentType" : 5126,
            "count" : 20953,
            "type" : "VEC2"
        },
        {
            "bufferView" : 3,
            "componentType" : 5123,
            "count" : 32496,
            "type" : "SCALAR"
        }
    ],
    "bufferViews" : [
        {
            "buffer" : 0,
            "byteLength" : 251436,
            "byteOffset" : 0
        },
        {
            "buffer" : 0,
            "byteLength" : 251436,
            "byteOffset" : 251436
        },
        {
            "buffer" : 0,
            "byteLength" : 167624,
            "byteOffset" : 502872
        },
        {
            "buffer" : 0,
            "byteLength" : 64992,
            "byteOffset" : 670496
        }
    ],
    "buffers" : [
        {
            "byteLength" : 735488,
            "uri" : "data:application/octet-stream;base64,"
        }
    ]
}
