{
    "asset" : {
        "generator" : "Khronos glTF Blender I/O v1.5.17",
        "version" : "2.0"
    },
    "scene" : 0,
    "scenes" : [
        {
            "name" : "Scene",
            "nodes" : [
                0,
                2
            ]
        }
    ],
    "nodes" : [
        {
            "mesh" : 0,
            "name" : "Text.002",
            "rotation" : [
                0.7071068286895752,
                0,
                0,
                0.7071068286895752
            ],
            "scale" : [
                0.2753905951976776,
                0.275390625,
                0.275390625
            ],
            "translation" : [
                -0.003080488881096244,
                0.008223060518503189,
                0.0003689681470859796
            ]
        },
        {
            "mesh" : 1,
            "name" : "arrow_model.001",
            "rotation" : [
                0.7071068286895752,
                0,
                0,
                0.7071067094802856
            ],
            "scale" : [
                10,
                10,
                10
            ],
            "translation" : [
                0.10000099241733551,
                0.06995432078838348,
                -36.306182861328125
            ]
        },
        {
            "children" : [
                1
            ],
            "name" : "arrow_root.001",
            "rotation" : [
                0,
                -0.7071068286895752,
                -0.7071067094802856,
                5.338507236274381e-08
            ],
            "scale" : [
                0.017480909824371338,
                0.017480909824371338,
                0.017480909824371338
            ],
            "translation" : [
                -0.0012438846752047539,
                0.5483161211013794,
                6.809612386859953e-05
            ]
        }
    ],
    "animations" : [
        {
            "channels" : [
                {
                    "sampler" : 0,
                    "target" : {
                        "node" : 1,
                        "path" : "translation"
                    }
                },
                {
                    "sampler" : 1,
                    "target" : {
                        "node" : 1,
                        "path" : "rotation"
                    }
                },
                {
                    "sampler" : 2,
                    "target" : {
                        "node" : 1,
                        "path" : "scale"
                    }
                }
            ],
            "name" : "arrow_modelAction",
            "samplers" : [
                {
                    "input" : 8,
                    "interpolation" : "LINEAR",
                    "output" : 9
                },
                {
                    "input" : 8,
                    "interpolation" : "LINEAR",
                    "output" : 10
                },
                {
                    "input" : 8,
                    "interpolation" : "LINEAR",
                    "output" : 11
                }
            ]
        }
    ],
    "materials" : [
        {
            "doubleSided" : true,
            "emissiveFactor" : [
                1,
                1,
                1
            ],
            "name" : "Material.001",
            "pbrMetallicRoughness" : {
                "baseColorFactor" : [
                    0.779251217842102,
                    0.8131446838378906,
                    1,
                    1
                ],
                "metallicFactor" : 0,
                "roughnessFactor" : 0.4000000059604645
            }
        },
        {
            "doubleSided" : true,
            "emissiveFactor" : [
                0,
                0.27450981736183167,
                0.5686274766921997
            ],
            "name" : "arrow_material.001",
            "pbrMetallicRoughness" : {
                "baseColorFactor" : [
                    0.3490196168422699,
                    0.32156863808631897,
                    1,
                    1
                ],
                "roughnessFactor" : 0.5530382990837097
            }
        }
    ],
    "meshes" : [
        {
            "name" : "Text.001",
            "primitives" : [
                {
                    "attributes" : {
                        "POSITION" : 0,
                        "NORMAL" : 1,
                        "TEXCOORD_0" : 2
                    },
                    "indices" : 3,
                    "material" : 0
                }
            ]
        },
        {
            "name" : "arrow_model-mesh.001",
            "primitives" : [
                {
                    "attributes" : {
                        "POSITION" : 4,
                        "NORMAL" : 5,
                        "TEXCOORD_0" : 6
                    },
                    "indices" : 7,
                    "material" : 1
                }
            ]
        }
    ],
    "accessors" : [
        {
            "bufferView" : 0,
            "componentType" : 5126,
            "count" : 1266,
            "max" : [
                2.072014331817627,
                0.08999999612569809,
                -2.5941243171691895
            ],
            "min" : [
                -2.270986318588257,
                -0.08999999612569809,
                -4.294124603271484
            ],
            "type" : "VEC3"
        },
        {
            "bufferView" : 1,
            "componentType" : 5126,
            "count" : 1266,
            "type" : "VEC3"
        },
        {
            "bufferView" : 2,
            "componentType" : 5126,
            "count" : 1266,
            "type" : "VEC2"
        },
        {
            "bufferView" : 3,
            "componentType" : 5123,
            "count" : 1848,
            "type" : "SCALAR"
        },
        {
            "bufferView" : 4,
            "componentType" : 5126,
            "count" : 30,
            "max" : [
                1.4614441394805908,
                4.040634632110596,
                0.5069950819015503
            ],
            "min" : [
                -1.4785557985305786,
                0.6206345558166504,
                -0.4930049479007721
            ],
            "type" : "VEC3"
        },
        {
            "bufferView" : 5,
            "componentType" : 5126,
            "count" : 30,
            "type" : "VEC3"
        },
        {
            "bufferView" : 6,
            "componentType" : 5126,
            "count" : 30,
            "type" : "VEC2"
        },
        {
            "bufferView" : 7,
            "componentType" : 5123,
            "count" : 30,
            "type" : "SCALAR"
        },
        {
            "bufferView" : 8,
            "componentType" : 5126,
            "count" : 100,
            "max" : [
                3.3333333333333335
            ],
            "min" : [
                0.03333333333333333
            ],
            "type" : "SCALAR"
        },
        {
            "bufferView" : 9,
            "componentType" : 5126,
            "count" : 100,
            "type" : "VEC3"
        },
        {
            "bufferView" : 10,
            "componentType" : 5126,
            "count" : 100,
            "type" : "VEC4"
        },
        {
            "bufferView" : 11,
            "componentType" : 5126,
            "count" : 100,
            "type" : "VEC3"
        }
    ],
    "bufferViews" : [
        {
            "buffer" : 0,
            "byteLength" : 15192,
            "byteOffset" : 0
        },
        {
            "buffer" : 0,
            "byteLength" : 15192,
            "byteOffset" : 15192
        },
        {
            "buffer" : 0,
            "byteLength" : 10128,
            "byteOffset" : 30384
        },
        {
            "buffer" : 0,
            "byteLength" : 3696,
            "byteOffset" : 40512
        },
        {
            "buffer" : 0,
            "byteLength" : 360,
            "byteOffset" : 44208
        },
        {
            "buffer" : 0,
            "byteLength" : 360,
            "byteOffset" : 44568
        },
        {
            "buffer" : 0,
            "byteLength" : 240,
            "byteOffset" : 44928
        },
        {
            "buffer" : 0,
            "byteLength" : 60,
            "byteOffset" : 45168
        },
        {
            "buffer" : 0,
            "byteLength" : 400,
            "byteOffset" : 45228
        },
        {
            "buffer" : 0,
            "byteLength" : 1200,
            "byteOffset" : 45628
        },
        {
            "buffer" : 0,
            "byteLength" : 1600,
            "byteOffset" : 46828
        },
        {
            "buffer" : 0,
            "byteLength" : 1200,
            "byteOffset" : 48428
        }
    ],
    "buffers" : [
        {
            "byteLength" : 49628,
            "uri" : "data:application/octet-stream;base64,"
        }
    ]
}
