{
    "asset" : {
        "generator" : "Khronos glTF Blender I/O v1.5.17",
        "version" : "2.0"
    },
    "scene" : 0,
    "scenes" : [
        {
            "name" : "Scene",
            "nodes" : [
                5,
                6
            ]
        }
    ],
    "nodes" : [
        {
            "mesh" : 0,
            "name" : "mesh_all1_Texture1_0",
            "scale" : [
                0.6144795417785645,
                0.6144795417785645,
                0.6144795417785645
            ],
            "translation" : [
                0,
                1.894469141960144,
                0
            ]
        },
        {
            "children" : [
                0
            ],
            "name" : "mesh_all1"
        },
        {
            "children" : [
                1
            ],
            "name" : "RootNode"
        },
        {
            "children" : [
                2
            ],
            "name" : "vikingroom.fbx",
            "rotation" : [
                0.7071068286895752,
                0,
                0,
                0.7071068286895752
            ]
        },
        {
            "children" : [
                3
            ],
            "name" : "RootNode (model correction matrix)"
        },
        {
            "children" : [
                4
            ],
            "name" : "RootNode (gltf orientation matrix)",
            "rotation" : [
                -0.7071068286895752,
                0,
                0,
                0.7071068286895752
            ],
            "scale" : [
                0.5232371687889099,
                0.5232371687889099,
                0.5232371687889099
            ]
        },
        {
            "name" : "Light",
            "rotation" : [
                0.16907575726509094,
                0.7558803558349609,
                -0.27217137813568115,
                0.570947527885437
            ],
            "translation" : [
                0.032332420349121094,
                4.669943809509277,
                -1.4929053783416748
            ]
        }
    ],
    "materials" : [
        {
            "doubleSided" : true,
            "name" : "Texture1",
            "pbrMetallicRoughness" : {
                "baseColorTexture" : {
                    "index" : 0
                },
                "metallicFactor" : 0
            }
        }
    ],
    "meshes" : [
        {
            "name" : "mesh_all1_Texture1_0",
            "primitives" : [
                {
                    "attributes" : {
                        "POSITION" : 0,
                        "NORMAL" : 1,
                        "TEXCOORD_0" : 2
                    },
                    "indices" : 3,
                    "material" : 0
                }
            ]
        }
    ],
    "textures" : [
        {
            "sampler" : 0,
            "source" : 0
        }
    ],
    "images" : [
        {
            "bufferView" : 4,
            "mimeType" : "image/png",
            "name" : "Texture1_baseColor"
        }
    ],
    "accessors" : [
        {
            "bufferView" : 0,
            "componentType" : 5126,
            "count" : 5804,
            "max" : [
                13.323686599731445,
                13.686728477478027,
                -0.06857490539550781
            ],
            "min" : [
                -12.990525245666504,
                -4.915593147277832,
                -23.98069953918457
            ],
            "type" : "VEC3"
        },
        {
            "bufferView" : 1,
            "componentType" : 5126,
            "count" : 5804,
            "type" : "VEC3"
        },
        {
            "bufferView" : 2,
            "componentType" : 5126,
            "count" : 5804,
            "type" : "VEC2"
        },
        {
            "bufferView" : 3,
            "componentType" : 5123,
            "count" : 11484,
            "type" : "SCALAR"
        }
    ],
    "bufferViews" : [
        {
            "buffer" : 0,
            "byteLength" : 69648,
            "byteOffset" : 0
        },
        {
            "buffer" : 0,
            "byteLength" : 69648,
            "byteOffset" : 69648
        },
        {
            "buffer" : 0,
            "byteLength" : 46432,
            "byteOffset" : 139296
        },
        {
            "buffer" : 0,
            "byteLength" : 22968,
            "byteOffset" : 185728
        },
        {
            "buffer" : 0,
            "byteLength" : 935441,
            "byteOffset" : 208696
        }
    ],
    "samplers" : [
        {
            "magFilter" : 9729,
            "minFilter" : 9987
        }
    ],
    "buffers" : [
        {
            "byteLength" : 1144140,
            "uri" : "data:application/octet-stream;base64,"
        }
    ]
}
