{
    "asset" : {
        "generator" : "Khronos glTF Blender I/O v1.4.40",
        "version" : "2.0"
    },
    "scene" : 0,
    "scenes" : [
        {
            "name" : "Scene",
            "nodes" : [
                5,
                6
            ]
        }
    ],
    "nodes" : [
        {
            "mesh" : 0,
            "name" : "mesh_all1_Texture1_0",
            "translation" : [
                0.057852476835250854,
                -2.699876308441162,
                12.743054389953613
            ]
        },
        {
            "children" : [
                0
            ],
            "name" : "mesh_all1"
        },
        {
            "children" : [
                1
            ],
            "name" : "RootNode"
        },
        {
            "children" : [
                2
            ],
            "name" : "vikingroom.fbx",
            "rotation" : [
                0.7071068286895752,
                0,
                0,
                0.7071068286895752
            ]
        },
        {
            "children" : [
                3
            ],
            "name" : "RootNode (model correction matrix)"
        },
        {
            "children" : [
                4
            ],
            "name" : "RootNode (gltf orientation matrix)",
            "rotation" : [
                -0.7071068286895752,
                0,
                0,
                0.7071068286895752
            ],
            "scale" : [
                0.34409797191619873,
                0.34409797191619873,
                0.34409797191619873
            ],
            "translation" : [
                -0.019906919449567795,
                0.9290220737457275,
                -4.384860038757324
            ]
        },
        {
            "name" : "Light",
            "rotation" : [
                0.16907575726509094,
                0.7558803558349609,
                -0.27217137813568115,
                0.570947527885437
            ],
            "scale" : [
                0.34409797191619873,
                0.34409797191619873,
                0.3440980315208435
            ],
            "translation" : [
                -0.040793973952531815,
                4.090909004211426,
                -3.8167884349823
            ]
        }
    ],
    "materials" : [
        {
            "doubleSided" : true,
            "name" : "Texture1",
            "pbrMetallicRoughness" : {
                "baseColorTexture" : {
                    "index" : 0,
                    "texCoord" : 0
                },
                "metallicFactor" : 0
            }
        }
    ],
    "meshes" : [
        {
            "name" : "mesh_all1_Texture1_0",
            "primitives" : [
                {
                    "attributes" : {
                        "POSITION" : 0,
                        "NORMAL" : 1,
                        "TEXCOORD_0" : 2
                    },
                    "indices" : 3,
                    "material" : 0
                }
            ]
        }
    ],
    "textures" : [
        {
            "sampler" : 0,
            "source" : 0
        }
    ],
    "images" : [
        {
            "bufferView" : 4,
            "mimeType" : "image/png",
            "name" : "Texture1_baseColor"
        }
    ],
    "accessors" : [
        {
            "bufferView" : 0,
            "componentType" : 5126,
            "count" : 5777,
            "max" : [
                13.265833854675293,
                19.362810134887695,
                0.6233234405517578
            ],
            "min" : [
                -13.048377990722656,
                0.7604876160621643,
                -23.288801193237305
            ],
            "type" : "VEC3"
        },
        {
            "bufferView" : 1,
            "componentType" : 5126,
            "count" : 5777,
            "type" : "VEC3"
        },
        {
            "bufferView" : 2,
            "componentType" : 5126,
            "count" : 5777,
            "type" : "VEC2"
        },
        {
            "bufferView" : 3,
            "componentType" : 5123,
            "count" : 11484,
            "type" : "SCALAR"
        }
    ],
    "bufferViews" : [
        {
            "buffer" : 0,
            "byteLength" : 69324,
            "byteOffset" : 0
        },
        {
            "buffer" : 0,
            "byteLength" : 69324,
            "byteOffset" : 69324
        },
        {
            "buffer" : 0,
            "byteLength" : 46216,
            "byteOffset" : 138648
        },
        {
            "buffer" : 0,
            "byteLength" : 22968,
            "byteOffset" : 184864
        },
        {
            "buffer" : 0,
            "byteLength" : 935441,
            "byteOffset" : 207832
        }
    ],
    "samplers" : [
        {
            "magFilter" : 9729,
            "minFilter" : 9986
        }
    ],
    "buffers" : [
        {
            "byteLength" : 1143276,
            "uri" : "data:application/octet-stream;base64,"
        }
    ]
}
